<svg xmlns="http://www.w3.org/2000/svg" width="434.794" height="590.489" class="query-plan" neo-plan="neo-plan" query-plan="frame.response.table._response.plan" viewBox="28.236 -580.489 434.794 590.489"><g class="link"><path fill="#DFE1E3" d="M 154.43987238000906 -470.2788844621514 C 154.43987238000906 -440.87840212158784 154.69101028267784 -440.87840212158784 154.69101028267784 -378.11420982735723 L 102.28341723920727 -378.11420982735723 C 102.28341723920727 -407.5146921679207 102.0322793365385 -407.5146921679207 102.0322793365385 -470.2788844621514 Z"/><text x="128.236" y="-456.279" font-family="'Helvetica Neue',Helvetica,Arial,sans-serif" font-size="10" text-anchor="end" xml:space="preserve">41</text><text x="128.236" y="-456.279" font-family="'Helvetica Neue',Helvetica,Arial,sans-serif" font-size="10" text-anchor="start" xml:space="preserve">rows</text></g><g class="link"><path fill="#DFE1E3" d="M 153.46158235344546 -357.3917662682603 C 153.46158235344546 -332.8526961046914 154.72889491500445 -332.8526961046914 154.72889491500445 -276.5152722443559 L 104.78015772999859 -276.5152722443559 C 104.78015772999859 -301.0543424079249 103.51284516843963 -301.0543424079249 103.51284516843963 -357.3917662682603 Z"/><text x="128.487" y="-343.392" font-family="'Helvetica Neue',Helvetica,Arial,sans-serif" font-size="10" text-anchor="end" xml:space="preserve">34</text><text x="128.487" y="-343.392" font-family="'Helvetica Neue',Helvetica,Arial,sans-serif" font-size="10" text-anchor="start" xml:space="preserve">rows</text></g><g class="link"><path fill="#DFE1E3" d="M 152.72447299482883 -254 C 152.72447299482883 -243.62312222183252 155.99968040007147 -243.62312222183252 155.99968040007147 -204 L 110.05978705541682 -204 C 110.05978705541682 -214.37687777816748 106.78457965017418 -214.37687777816748 106.78457965017418 -254 Z"/><text x="129.755" y="-240" font-family="'Helvetica Neue',Helvetica,Arial,sans-serif" font-size="10" text-anchor="end" xml:space="preserve">25</text><text x="129.755" y="-240" font-family="'Helvetica Neue',Helvetica,Arial,sans-serif" font-size="10" text-anchor="start" xml:space="preserve">rows</text></g><g class="link"><path fill="#DFE1E3" d="M 155.99968040007147 -186 C 155.99968040007147 -175.62312222183252 160.69651488388809 -175.62312222183252 160.69651488388809 -136 L 114.75662153923344 -136 C 114.75662153923344 -146.37687777816748 110.05978705541682 -146.37687777816748 110.05978705541682 -186 Z"/><text x="133.03" y="-172" font-family="'Helvetica Neue',Helvetica,Arial,sans-serif" font-size="10" text-anchor="end" xml:space="preserve">25</text><text x="133.03" y="-172" font-family="'Helvetica Neue',Helvetica,Arial,sans-serif" font-size="10" text-anchor="start" xml:space="preserve">rows</text></g><g class="link"><path fill="#DFE1E3" d="M 394.97843755868627 -541.0677290836653 C 394.97843755868627 -500.1522347744758 394.80983986563075 -500.1522347744758 394.80983986563075 -491.0677290836653 L 323.3888280374384 -491.0677290836653 C 323.3888280374384 -531.9832233928548 323.5574257304939 -531.9832233928548 323.5574257304939 -541.0677290836653 Z"/><text x="359.268" y="-527.068" font-family="'Helvetica Neue',Helvetica,Arial,sans-serif" font-size="10" text-anchor="end" xml:space="preserve">171</text><text x="359.268" y="-527.068" font-family="'Helvetica Neue',Helvetica,Arial,sans-serif" font-size="10" text-anchor="start" xml:space="preserve">rows</text></g><g class="link"><path fill="#DFE1E3" d="M 402.09933395153456 -428.11420982735723 C 402.09933395153456 -419.02970413654674 402.11890860206586 -419.02970413654674 402.11890860206586 -378.11420982735723 L 316.11890860206586 -378.11420982735723 C 316.11890860206586 -387.1987155181677 316.09933395153456 -387.1987155181677 316.09933395153456 -428.11420982735723 Z"/><text x="359.099" y="-414.114" font-family="'Helvetica Neue',Helvetica,Arial,sans-serif" font-size="10" text-anchor="end" xml:space="preserve">506</text><text x="359.099" y="-414.114" font-family="'Helvetica Neue',Helvetica,Arial,sans-serif" font-size="10" text-anchor="start" xml:space="preserve">rows</text></g><g class="link"><path fill="#DFE1E3" d="M 360.11890860206586 -326.5152722443559 C 360.11890860206586 -302.1518920167235 361.10699457731243 -302.1518920167235 361.10699457731243 -276.5152722443559 L 359.10699457731243 -276.5152722443559 C 359.10699457731243 -300.87865247198835 358.11890860206586 -300.87865247198835 358.11890860206586 -326.5152722443559 Z"/><text x="359.119" y="-312.515" font-family="'Helvetica Neue',Helvetica,Arial,sans-serif" font-size="10" text-anchor="end" xml:space="preserve">0</text><text x="359.119" y="-312.515" font-family="'Helvetica Neue',Helvetica,Arial,sans-serif" font-size="10" text-anchor="start" xml:space="preserve">rows</text></g><g class="link"><path fill="#DFE1E3" d="M 361.10699457731243 -258.5152722443559 C 361.10699457731243 -231.89425589454555 364.02973372774414 -231.89425589454555 364.02973372774414 -204 L 362.02973372774414 -204 C 362.02973372774414 -230.62101634981036 359.10699457731243 -230.62101634981036 359.10699457731243 -258.5152722443559 Z"/><text x="360.107" y="-244.515" font-family="'Helvetica Neue',Helvetica,Arial,sans-serif" font-size="10" text-anchor="end" xml:space="preserve">0</text><text x="360.107" y="-244.515" font-family="'Helvetica Neue',Helvetica,Arial,sans-serif" font-size="10" text-anchor="start" xml:space="preserve">rows</text></g><g class="link"><path fill="#DFE1E3" d="M 364.02973372774414 -186 C 364.02973372774414 -160.3633802276324 162.69651488388809 -160.3633802276324 162.69651488388809 -136 L 160.69651488388809 -136 C 160.69651488388809 -161.6366197723676 362.02973372774414 -161.6366197723676 362.02973372774414 -186 Z"/><text x="363.03" y="-172" font-family="'Helvetica Neue',Helvetica,Arial,sans-serif" font-size="10" text-anchor="end" xml:space="preserve">0</text><text x="363.03" y="-172" font-family="'Helvetica Neue',Helvetica,Arial,sans-serif" font-size="10" text-anchor="start" xml:space="preserve">rows</text></g><g class="link"><path fill="#DFE1E3" d="M 161.69651488388809 -118 C 161.69651488388809 -78.3768777781675 160.00898418052736 -78.3768777781675 160.00898418052736 -68 L 114.06909083587271 -68 C 114.06909083587271 -107.6231222218325 115.75662153923344 -107.6231222218325 115.75662153923344 -118 Z"/><text x="138.727" y="-104" font-family="'Helvetica Neue',Helvetica,Arial,sans-serif" font-size="10" text-anchor="end" xml:space="preserve">25</text><text x="138.727" y="-104" font-family="'Helvetica Neue',Helvetica,Arial,sans-serif" font-size="10" text-anchor="start" xml:space="preserve">rows</text></g><g class="operator" transform="translate(47.03903579711914,-68)"><g class="header" pointer-events="all"><path d="M 176 0 A 4 4 0 0 1 180 4 L 180 14 A 4 4 0 0 1 176 18 L 4 18 A 4 4 0 0 1 0 14 L 0 4 A 4 4 0 0 1 4 0 Z" class="banner" style="fill:#c6dbef"/><text x="18" y="13" fill="#000" class="title" font-family="'Helvetica Neue',Helvetica,Arial,sans-serif" font-size="11">Result</text></g><rect width="180" height="18" fill="none" stroke-width="1" class="outline" rx="4" ry="4" style="stroke:#8a99a7"/><path fill="#F25A29" d="M 176 18 A 4 4 0 0 1 176 18 L 4 18 A 4 4 0 0 1 4 18 Z" class="cost"/></g><g class="operator" transform="translate(48.726566314697266,-136)"><g class="header" pointer-events="all"><path d="M 176 0 A 4 4 0 0 1 180 4 L 180 14 A 4 4 0 0 1 176 18 L 4 18 A 4 4 0 0 1 0 14 L 0 4 A 4 4 0 0 1 4 0 Z" class="banner" style="fill:#6baed6"/><path fill="#FFF" d="M -5 -10 L 8.66 0 L -5 10 Z" class="expand" transform="translate(9, 9) rotate(0) scale(0.5)"/><text x="18" y="13" fill="#FFF" class="title" font-family="'Helvetica Neue',Helvetica,Arial,sans-serif" font-size="11">Union</text></g><rect width="180" height="18" fill="none" stroke-width="1" class="outline" rx="4" ry="4" style="stroke:#4a7995"/><path fill="#F25A29" d="M 176 18 A 4 4 0 0 1 176 18 L 4 18 A 4 4 0 0 1 4 18 Z" class="cost"/></g><g class="operator" transform="translate(43.02973556518555,-204)"><g class="header" pointer-events="all"><path d="M 176 0 A 4 4 0 0 1 180 4 L 180 14 A 4 4 0 0 1 176 18 L 4 18 A 4 4 0 0 1 0 14 L 0 4 A 4 4 0 0 1 4 0 Z" class="banner" style="fill:#6baed6"/><path fill="#FFF" d="M -5 -10 L 8.66 0 L -5 10 Z" class="expand" transform="translate(9, 9) rotate(0) scale(0.5)"/><text x="18" y="13" fill="#FFF" class="title" font-family="'Helvetica Neue',Helvetica,Arial,sans-serif" font-size="11">Limit</text></g><rect width="180" height="18" fill="none" stroke-width="1" class="outline" rx="4" ry="4" style="stroke:#4a7995"/><path fill="#F25A29" d="M 176 18 A 4 4 0 0 1 176 18 L 4 18 A 4 4 0 0 1 4 18 Z" class="cost"/></g><g class="operator" transform="translate(39.7545280456543,-276.5152587890625)"><g class="header" pointer-events="all"><path d="M 176 0 A 4 4 0 0 1 180 4 L 180 14 A 4 4 0 0 1 180 18 L 0 18 A 4 4 0 0 1 0 14 L 0 4 A 4 4 0 0 1 4 0 Z" class="banner" style="fill:#2171b5"/><path fill="#FFF" d="M -5 -10 L 8.66 0 L -5 10 Z" class="expand" transform="translate(9, 9) rotate(0) scale(0.5)"/><text x="18" y="13" fill="#FFF" class="title" font-family="'Helvetica Neue',Helvetica,Arial,sans-serif" font-size="11">Distinct</text></g><rect width="180" height="22.515" fill="none" stroke-width="1" class="outline" rx="4" ry="4" style="stroke:#174f7e"/><path fill="#F25A29" d="M 0 18 L 180 18 L 180 18.51527224435591 A 4 4 0 0 1 176 22.51527224435591 L 4 22.51527224435591 A 4 4 0 0 1 0 18.51527224435591 Z" class="cost"/></g><g class="operator" transform="translate(38.487213134765625,-378.11419677734375)"><g class="header" pointer-events="all"><path d="M 176 0 A 4 4 0 0 1 180 4 L 180 14 A 4 4 0 0 1 179.79049463003275 18 L 0.20950536996724933 18 A 4 4 0 0 1 0 14 L 0 4 A 4 4 0 0 1 4 0 Z" class="banner" style="fill:#2171b5"/><path fill="#FFF" d="M -5 -10 L 8.66 0 L -5 10 Z" class="expand" transform="translate(9, 9) rotate(0) scale(0.5)"/><text x="18" y="13" fill="#FFF" class="title" font-family="'Helvetica Neue',Helvetica,Arial,sans-serif" font-size="11">Filter</text></g><rect width="180" height="20.722" fill="none" stroke-width="1" class="outline" rx="4" ry="4" style="stroke:#174f7e"/><path fill="#F25A29" d="M 179.79049463003275 18 A 4 4 0 0 1 176 20.722443559096945 L 4 20.722443559096945 A 4 4 0 0 1 0.20950536996724933 18 Z" class="cost"/></g><g class="operator" transform="translate(38.23607635498047,-491.0677185058594)"><g class="header" pointer-events="all"><path d="M 176 0 A 4 4 0 0 1 180 4 L 180 14 A 4 4 0 0 1 179.81223066578667 18 L 0.18776933421332664 18 A 4 4 0 0 1 0 14 L 0 4 A 4 4 0 0 1 4 0 Z" class="banner" style="fill:#9ecae1"/><path fill="#000" d="M -5 -10 L 8.66 0 L -5 10 Z" class="expand" transform="translate(9, 9) rotate(0) scale(0.5)"/><text x="18" y="13" fill="#000" class="title" font-family="'Helvetica Neue',Helvetica,Arial,sans-serif" font-size="11">AllNodesScan</text></g><rect width="180" height="20.789" fill="none" stroke-width="1" class="outline" rx="4" ry="4" style="stroke:#6e8d9d"/><path fill="#F25A29" d="M 179.81223066578667 18 A 4 4 0 0 1 176 20.788844621513945 L 4 20.788844621513945 A 4 4 0 0 1 0.1877693342133271 18 Z" class="cost"/></g><g class="operator" transform="translate(273.02972412109375,-204)"><g class="header" pointer-events="all"><path d="M 176 0 A 4 4 0 0 1 180 4 L 180 14 A 4 4 0 0 1 176 18 L 4 18 A 4 4 0 0 1 0 14 L 0 4 A 4 4 0 0 1 4 0 Z" class="banner" style="fill:#6baed6"/><path fill="#FFF" d="M -5 -10 L 8.66 0 L -5 10 Z" class="expand" transform="translate(9, 9) rotate(0) scale(0.5)"/><text x="18" y="13" fill="#FFF" class="title" font-family="'Helvetica Neue',Helvetica,Arial,sans-serif" font-size="11">Limit</text></g><rect width="180" height="18" fill="none" stroke-width="1" class="outline" rx="4" ry="4" style="stroke:#4a7995"/><path fill="#F25A29" d="M 176 18 A 4 4 0 0 1 176 18 L 4 18 A 4 4 0 0 1 4 18 Z" class="cost"/></g><g class="operator" transform="translate(270.10699462890625,-276.5152587890625)"><g class="header" pointer-events="all"><path d="M 176 0 A 4 4 0 0 1 180 4 L 180 14 A 4 4 0 0 1 176 18 L 4 18 A 4 4 0 0 1 0 14 L 0 4 A 4 4 0 0 1 4 0 Z" class="banner" style="fill:#2171b5"/><path fill="#FFF" d="M -5 -10 L 8.66 0 L -5 10 Z" class="expand" transform="translate(9, 9) rotate(0) scale(0.5)"/><text x="18" y="13" fill="#FFF" class="title" font-family="'Helvetica Neue',Helvetica,Arial,sans-serif" font-size="11">Distinct</text></g><rect width="180" height="18" fill="none" stroke-width="1" class="outline" rx="4" ry="4" style="stroke:#174f7e"/><path fill="#F25A29" d="M 176 18 A 4 4 0 0 1 176 18 L 4 18 A 4 4 0 0 1 4 18 Z" class="cost"/></g><g class="operator" transform="translate(269.118896484375,-378.11419677734375)"><g class="header" pointer-events="all"><path d="M 176 0 A 4 4 0 0 1 180 4 L 180 14 A 4 4 0 0 1 180 18 L 0 18 A 4 4 0 0 1 0 14 L 0 4 A 4 4 0 0 1 4 0 Z" class="banner" style="fill:#2171b5"/><path fill="#FFF" d="M -5 -10 L 8.66 0 L -5 10 Z" class="expand" transform="translate(9, 9) rotate(0) scale(0.5)"/><text x="18" y="13" fill="#FFF" class="title" font-family="'Helvetica Neue',Helvetica,Arial,sans-serif" font-size="11">Filter</text></g><rect width="180" height="51.599" fill="none" stroke-width="1" class="outline" rx="4" ry="4" style="stroke:#174f7e"/><path fill="#F25A29" d="M 0 18 L 180 18 L 180 47.59893758300132 A 4 4 0 0 1 176 51.59893758300132 L 4 51.59893758300132 A 4 4 0 0 1 0 47.59893758300132 Z" class="cost"/><text x="90" y="32" fill="#fff" class="cost" font-family="'Helvetica Neue',Helvetica,Arial,sans-serif" font-size="10" text-anchor="end" xml:space="preserve">506</text><text x="90" y="32" fill="#fff" class="cost" font-family="'Helvetica Neue',Helvetica,Arial,sans-serif" font-size="10" text-anchor="start" xml:space="preserve">db hits</text></g><g class="operator" transform="translate(269.0993347167969,-491.0677185058594)"><g class="header" pointer-events="all"><path d="M 176 0 A 4 4 0 0 1 180 4 L 180 14 A 4 4 0 0 1 180 18 L 0 18 A 4 4 0 0 1 0 14 L 0 4 A 4 4 0 0 1 4 0 Z" class="banner" style="fill:#08519c"/><path fill="#FFF" d="M -5 -10 L 8.66 0 L -5 10 Z" class="expand" transform="translate(9, 9) rotate(0) scale(0.5)"/><text x="18" y="13" fill="#FFF" class="title" font-family="'Helvetica Neue',Helvetica,Arial,sans-serif" font-size="11">Expand(All)</text></g><rect width="180" height="62.954" fill="none" stroke-width="1" class="outline" rx="4" ry="4" style="stroke:#05386d"/><path fill="#F25A29" d="M 0 18 L 180 18 L 180 58.9535192563081 A 4 4 0 0 1 176 62.9535192563081 L 4 62.9535192563081 A 4 4 0 0 1 0 58.9535192563081 Z" class="cost"/><text x="90" y="32" fill="#fff" class="cost" font-family="'Helvetica Neue',Helvetica,Arial,sans-serif" font-size="10" text-anchor="end" xml:space="preserve">677</text><text x="90" y="32" fill="#fff" class="cost" font-family="'Helvetica Neue',Helvetica,Arial,sans-serif" font-size="10" text-anchor="start" xml:space="preserve">db hits</text></g><g class="operator" transform="translate(269.2679443359375,-570.4887084960938)"><g class="header" pointer-events="all"><path d="M 176 0 A 4 4 0 0 1 180 4 L 180 14 A 4 4 0 0 1 180 18 L 0 18 A 4 4 0 0 1 0 14 L 0 4 A 4 4 0 0 1 4 0 Z" class="banner" style="fill:#9ecae1"/><path fill="#000" d="M -5 -10 L 8.66 0 L -5 10 Z" class="expand" transform="translate(9, 9) rotate(0) scale(0.5)"/><text x="18" y="13" fill="#000" class="title" font-family="'Helvetica Neue',Helvetica,Arial,sans-serif" font-size="11">AllNodesScan</text></g><rect width="180" height="29.421" fill="none" stroke-width="1" class="outline" rx="4" ry="4" style="stroke:#6e8d9d"/><path fill="#F25A29" d="M 0 18 L 180 18 L 180 25.42098273572377 A 4 4 0 0 1 176 29.42098273572377 L 4 29.42098273572377 A 4 4 0 0 1 0 25.42098273572377 Z" class="cost"/></g></svg>