<svg xmlns="http://www.w3.org/2000/svg" xmlns:xlink="http://www.w3.org/1999/xlink" width="295" height="315" version="1.1" viewBox="0 0 197 210"><title>query-plan-operator-rows</title><description>Created with Sketch (http://www.bohemiancoding.com/sketch)</description><g id="Page-1" fill="none" fill-rule="evenodd" stroke="none" stroke-width="1"><g id="plan-(7)" transform="translate(13.000000, 1.000000)"><g id="Group" transform="translate(55.000000, 0.000000)"><path id="Shape" fill="#DFE1E3" d="M71.9784376,-0.0677290837 C71.9784376,40.8477652 71.8098399,40.8477652 71.8098399,49.9322709 L0.388828037,49.9322709 C0.388828037,9.01677661 0.55742573,9.01677661 0.55742573,-0.0677290837 L71.9784376,-0.0677290837 Z"/><text id="171" fill="#000" font-family="Helvetica" font-size="10" font-weight="normal"><tspan x="17.268" y="30.932">171</tspan></text><text id="rows" fill="#000" font-family="Helvetica" font-size="10" font-weight="normal"><tspan x="36.389" y="30.932">rows</tspan></text></g><g id="Group" transform="translate(48.000000, 113.000000)"><path id="Shape" fill="#DFE1E3" d="M86.099334,-0.114209827 C86.099334,8.97029586 86.1189086,8.97029586 86.1189086,49.8857902 L0.118908602,49.8857902 C0.118908602,40.8012845 0.0993339515,40.8012845 0.0993339515,-0.114209827 L86.099334,-0.114209827 Z"/><text id="506---" fill="#000" font-family="Helvetica" font-size="10" font-weight="normal"><tspan x="24.415" y="24.886">506</tspan></text><text id="rows" fill="#000" font-family="Helvetica" font-size="10" font-weight="normal"><tspan x="43.099" y="24.886">rows</tspan></text></g><g id="Group" transform="translate(0.099335, 49.932281)"><g><path id="Shape" fill="#08519C" d="M177,0 C179.209139,1.3527075e-16 181,1.790861 181,4 L181,14 C181.714531,15.2376043 181.714531,16.7623957 181,18 L1,18 C0.28546882,16.7623957 0.28546882,15.2376043 1,14 L1,4 C1,1.790861 2.790861,4.05812251e-16 5,0 L177,0 Z"/><path id="Shape" fill="#FFF" d="M7.5,4 L14.33,9 L7.5,14 L7.5,4 Z"/><text id="Expand(All)" fill="#FFF" font-family="Helvetica" font-size="11" font-weight="normal"><tspan x="19" y="13">Expand(All)</tspan></text></g><rect id="Rectangle" width="180" height="62.954" x="1" y="0" stroke="#05386D" rx="4"/><path id="Shape" fill="#F25A29" d="M1,18 L181,18 L181,58.9535193 C181,61.1626583 179.209139,62.9535193 177,62.9535193 L5,62.9535193 C2.790861,62.9535193 1,61.1626583 1,58.9535193 L1,18 Z"/></g><text id="input---" fill="#000" font-family="Helvetica" font-size="14" font-weight="bold"><tspan x="132.149" y="30.78">input</tspan></text><text id="output" fill="#000" font-family="Helvetica" font-size="14" font-weight="bold"><tspan x="140.149" y="138">output</tspan></text></g><text id="width-indicates" fill="#000" font-family="Helvetica" font-size="10" font-weight="normal"><tspan x="71.705" y="196.886">width indicates</tspan> <tspan x="70.042" y="208.886">number of rows</tspan></text><text id="operator-name" fill="#000" font-family="Helvetica" font-size="10" font-weight="normal"><tspan x=".98" y="21.114">operator name</tspan></text><path id="Line" stroke="#000" stroke-linecap="square" d="M39.5,26.5 L39.5,50.5"/><path id="Line" fill="#000" stroke="#000" d="M61.5,183.5 L146.5,183.5"/><path id="Line-decoration-1" fill="#000" stroke="#000" d="M61.5,180.5 C61.5,182.6 61.5,184.4 61.5,186.5"/><path id="Line-decoration-2" fill="#000" stroke="#000" d="M146.5,180.5 C146.5,182.6 146.5,184.4 146.5,186.5"/></g></svg>