<svg xmlns="http://www.w3.org/2000/svg" viewBox="0 0 24 24"><defs><style>.a{fill:none;stroke:currentColor;stroke-linecap:round;stroke-linejoin:round;stroke-width:1.5px}</style></defs><title>layers-hide</title><path d="M8.153,13.664a12.271,12.271,0,0,1-5.936-4.15L1.008,7.96a.75.75,0,0,1,0-.92L2.217,5.486A12.268,12.268,0,0,1,11.9.75h0a12.269,12.269,0,0,1,9.684,4.736L22.792,7.04a.748.748,0,0,1,0,.92L21.584,9.514" class="a"/><path d="M10.4,10.937A3.749,3.749,0,1,1,15.338,9" class="a"/><circle cx="17.15" cy="17.25" r="6" class="a"/><line x1="14.15" x2="20.15" y1="17.25" y2="17.25" class="a"/></svg>